<?xml version="1.0" standalone="no"?>
<!DOCTYPE svg PUBLIC "-//W3C//DTD SVG 20010904//EN"
 "http://www.w3.org/TR/2001/REC-SVG-20010904/DTD/svg10.dtd">
<svg version="1.0" xmlns="http://www.w3.org/2000/svg"
 width="1280.000000pt" height="1280.000000pt" viewBox="0 0 1280.000000 1280.000000"
 preserveAspectRatio="xMidYMid meet">
<metadata>
Created by potrace 1.15, written by Peter Selinger 2001-2017
</metadata>
<g transform="translate(0.000000,1280.000000) scale(0.100000,-0.100000)"
fill="#908e8e" stroke="none">
<path d="M6319 9167 c-20 -8 -52 -23 -70 -35 -19 -12 -581 -569 -1250 -1239
-1340 -1341 -1254 -1247 -1254 -1376 0 -100 -11 -97 371 -97 l324 0 2 -1292
c3 -1203 4 -1296 20 -1331 28 -62 73 -111 130 -143 l53 -29 490 -3 c537 -3
548 -2 613 54 79 67 76 45 82 629 l5 520 23 45 c33 63 76 105 136 132 50 23
56 23 406 23 349 0 356 0 405 -23 63 -29 100 -64 133 -127 l27 -50 5 -520 c6
-584 3 -562 82 -629 65 -56 76 -57 613 -54 487 3 490 3 532 26 57 30 105 80
134 138 l24 49 3 1293 2 1292 324 0 c383 0 371 -3 371 97 -1 130 86 34 -1258
1380 -884 885 -1234 1229 -1270 1249 -59 32 -153 41 -208 21z"/>
</g>
</svg>
